<svg width="1224" height="200" viewBox="0 0 1224 200" fill="none" xmlns="http://www.w3.org/2000/svg">
<path d="M20.2143 129C21.4143 134.85 22.4643 137.1 24.8643 139.5C28.9143 143.25 35.9643 145.8 43.0143 145.8C53.8143 145.8 62.3643 139.95 62.3643 132.9C62.3643 129.15 60.2643 126 56.2143 123.75C53.9643 122.55 50.8143 121.5 47.9643 120.45L36.2643 117.45C22.4643 114 14.9643 111.15 10.6143 107.55C5.36426 102.9 2.36426 96 2.36426 87.6C2.36426 67.95 17.2143 55.5 40.6143 55.5C55.6143 55.5 67.0143 60.45 74.0643 69.45C78.1143 75 79.4643 79.95 79.9143 88.5H60.1143C58.3143 77.25 53.0643 73.05 40.6143 73.05C29.2143 73.05 22.0143 78 22.0143 85.65C22.0143 89.1 23.5143 91.65 26.3643 93.45C28.0143 94.5 30.7143 95.4 33.2643 96.15L38.5143 97.35L43.6143 98.55L48.7143 99.75C74.8143 106.2 82.9143 112.95 82.9143 129C82.9143 138.15 79.9143 145.95 73.9143 152.1C66.8643 159.15 56.9643 162.6 42.5643 162.6C25.6143 162.6 12.2643 156.9 5.51426 147.45C2.06426 142.05 0.864258 137.55 0.414258 129H20.2143ZM88.2498 58.95H107.6V94.05C112.85 86.25 119.3 82.8 130.1 82.8C140.15 82.8 148.25 86.7 152.3 93.75C154.55 97.2 155.3 102 155.3 108.45V159H135.5V116.25C135.5 109.8 134.75 105.45 133.1 103.2C130.85 100.35 127.55 99 123.5 99C114.05 99 107.6 106.05 107.6 116.7V159H88.2498V58.95ZM162.681 84.6H182.031V159H162.681V84.6ZM162.681 58.95H182.031V75.6H162.681V58.95ZM233.749 107.55C233.149 100.65 228.649 97.2 220.099 97.2C213.649 97.2 208.699 100.35 208.699 104.4C208.699 106.95 210.199 109.05 213.349 110.55C214.999 111.6 217.849 112.35 220.249 112.95L222.649 113.55L225.349 114L227.749 114.6C248.599 119.4 255.049 124.5 255.049 136.65C255.049 152.25 243.049 161.7 222.799 161.7C207.049 161.7 196.399 157.65 190.699 149.7C187.849 145.65 186.799 142.35 186.649 135.3H206.449C207.199 138.9 207.949 141 209.749 142.8C211.999 145.2 217.249 146.85 222.649 146.85C229.849 146.85 234.949 143.7 234.949 139.05C234.949 136.65 233.299 134.55 230.149 132.9C228.499 131.85 225.799 131.1 223.399 130.5L220.999 130.05L218.299 129.45L215.899 129C195.199 124.2 189.199 119.25 189.199 107.25C189.199 100.8 191.449 94.95 195.499 90.9C200.899 85.5 210.949 82.2 221.299 82.2C233.749 82.2 243.949 85.95 248.749 92.7C251.299 96.3 252.499 99.9 253.249 107.55H233.749ZM260.422 58.95H279.772V94.05C285.022 86.25 291.472 82.8 302.272 82.8C312.322 82.8 320.422 86.7 324.472 93.75C326.722 97.2 327.472 102 327.472 108.45V159H307.672V116.25C307.672 109.8 306.922 105.45 305.272 103.2C303.022 100.35 299.722 99 295.672 99C286.222 99 279.772 106.05 279.772 116.7V159H260.422V58.95ZM334.853 58.95H354.203V112.65L378.503 84.6H403.103L376.703 113.55L404.003 159H379.853L362.303 127.05L354.203 135.75V159H334.853V58.95ZM449.008 150C444.358 157.05 435.808 161.4 425.758 161.4C411.208 161.4 402.208 153.15 402.208 139.35C402.208 131.4 405.358 124.35 410.758 120.75C414.508 117.9 421.258 116.25 432.658 114.6C441.058 113.4 442.858 113.1 445.258 111.9C447.358 110.7 448.408 109.05 448.558 107.1C449.008 102.15 444.208 98.25 437.158 98.25C428.608 98.25 423.958 101.7 423.358 108.6H404.758C405.208 100.65 406.858 96.15 411.508 91.5C417.358 85.65 425.908 82.95 438.958 82.95C451.108 82.95 460.708 87 465.358 93.6C467.158 96.45 468.058 100.5 468.058 105.9V144.3C468.058 146.85 468.508 149.55 469.258 152.1C469.708 153.9 470.308 154.95 472.558 156.6V159H450.358L449.008 150ZM448.258 124.35C441.508 126 438.508 126.75 435.508 127.35C425.308 129.6 422.308 131.85 422.308 137.7C422.308 143.7 425.758 146.7 432.808 146.7C438.358 146.7 444.058 143.7 446.308 139.65C447.658 137.4 448.258 133.95 448.258 129.75V124.35Z" fill="#00F43A"/>
<path d="M564.871 125.25C562.021 148.5 546.121 162.3 522.121 162.3C506.671 162.3 491.521 154.8 483.871 142.8C478.921 135.15 475.771 122.1 475.771 108.9C475.771 77.4 494.521 56.55 522.121 56.55C537.271 56.55 548.671 61.5 556.321 71.25C561.571 78.15 563.821 82.8 564.571 91.95H544.021C541.771 81 533.971 74.4 523.171 74.4C506.971 74.4 496.921 88.05 496.921 110.1C496.921 131.55 506.371 144.15 522.421 144.15C528.871 144.15 534.421 141.6 538.471 137.25C541.321 134.25 542.371 131.7 544.021 125.25H564.871ZM569.574 58.95H588.924V159H569.574V58.95ZM641.541 150C636.891 157.05 628.341 161.4 618.291 161.4C603.741 161.4 594.741 153.15 594.741 139.35C594.741 131.4 597.891 124.35 603.291 120.75C607.041 117.9 613.791 116.25 625.191 114.6C633.591 113.4 635.391 113.1 637.791 111.9C639.891 110.7 640.941 109.05 641.091 107.1C641.541 102.15 636.741 98.25 629.691 98.25C621.141 98.25 616.491 101.7 615.891 108.6H597.291C597.741 100.65 599.391 96.15 604.041 91.5C609.891 85.65 618.441 82.95 631.491 82.95C643.641 82.95 653.241 87 657.891 93.6C659.691 96.45 660.591 100.5 660.591 105.9V144.3C660.591 146.85 661.041 149.55 661.791 152.1C662.241 153.9 662.841 154.95 665.091 156.6V159H642.891L641.541 150ZM640.791 124.35C634.041 126 631.041 126.75 628.041 127.35C617.841 129.6 614.841 131.85 614.841 137.7C614.841 143.7 618.291 146.7 625.341 146.7C630.891 146.7 636.591 143.7 638.841 139.65C640.191 137.4 640.791 133.95 640.791 129.75V124.35ZM713.754 107.55C713.154 100.65 708.654 97.2 700.104 97.2C693.654 97.2 688.704 100.35 688.704 104.4C688.704 106.95 690.204 109.05 693.354 110.55C695.004 111.6 697.854 112.35 700.254 112.95L702.654 113.55L705.354 114L707.754 114.6C728.604 119.4 735.054 124.5 735.054 136.65C735.054 152.25 723.054 161.7 702.804 161.7C687.054 161.7 676.404 157.65 670.704 149.7C667.854 145.65 666.804 142.35 666.654 135.3H686.454C687.204 138.9 687.954 141 689.754 142.8C692.004 145.2 697.254 146.85 702.654 146.85C709.854 146.85 714.954 143.7 714.954 139.05C714.954 136.65 713.304 134.55 710.154 132.9C708.504 131.85 705.804 131.1 703.404 130.5L701.004 130.05L698.304 129.45L695.904 129C675.204 124.2 669.204 119.25 669.204 107.25C669.204 100.8 671.454 94.95 675.504 90.9C680.904 85.5 690.954 82.2 701.304 82.2C713.754 82.2 723.954 85.95 728.754 92.7C731.304 96.3 732.504 99.9 733.254 107.55H713.754ZM784.378 107.55C783.778 100.65 779.278 97.2 770.728 97.2C764.278 97.2 759.328 100.35 759.328 104.4C759.328 106.95 760.828 109.05 763.978 110.55C765.628 111.6 768.478 112.35 770.878 112.95L773.278 113.55L775.978 114L778.378 114.6C799.228 119.4 805.678 124.5 805.678 136.65C805.678 152.25 793.678 161.7 773.428 161.7C757.678 161.7 747.028 157.65 741.328 149.7C738.478 145.65 737.428 142.35 737.278 135.3H757.078C757.828 138.9 758.578 141 760.378 142.8C762.628 145.2 767.878 146.85 773.278 146.85C780.478 146.85 785.578 143.7 785.578 139.05C785.578 136.65 783.928 134.55 780.778 132.9C779.128 131.85 776.428 131.1 774.028 130.5L771.628 130.05L768.928 129.45L766.528 129C745.828 124.2 739.828 119.25 739.828 107.25C739.828 100.8 742.078 94.95 746.128 90.9C751.528 85.5 761.578 82.2 771.928 82.2C784.378 82.2 794.578 85.95 799.378 92.7C801.928 96.3 803.128 99.9 803.878 107.55H784.378ZM811.051 84.6H830.401V159H811.051V84.6ZM811.051 58.95H830.401V75.6H811.051V58.95ZM835.468 85.05H846.268C846.268 80.85 846.418 77.85 846.568 75.6C846.718 69 847.768 65.85 850.768 63C855.118 58.8 862.168 56.7 871.618 56.7C873.868 56.7 875.668 56.7 878.518 56.85V72.45L874.018 72.9C868.168 73.35 866.218 75.45 866.218 81.6V85.05H878.818V99H866.068V159H846.268V99H835.468V85.05ZM883.742 84.6H903.092V159H883.742V84.6ZM883.742 58.95H903.092V75.6H883.742V58.95ZM978.209 131.7C977.159 141.3 975.059 146.7 969.509 152.25C963.059 158.7 955.559 161.7 944.909 161.7C921.959 161.7 909.209 148.2 909.209 123.45C909.209 110.1 912.509 99.75 919.109 92.7C925.709 85.95 935.009 82.5 946.409 82.5C957.359 82.5 965.609 85.8 971.609 93.45C975.809 98.25 977.309 102.45 978.509 110.7H958.409C956.159 102.45 952.559 98.85 945.509 98.85C935.909 98.85 929.759 107.7 929.759 122.55C929.759 136.95 935.459 145.65 945.059 145.65C949.709 145.65 953.909 143.25 956.159 139.2C957.359 137.55 957.659 135.75 958.709 131.7H978.209ZM1027.94 150C1023.29 157.05 1014.74 161.4 1004.69 161.4C990.144 161.4 981.144 153.15 981.144 139.35C981.144 131.4 984.294 124.35 989.694 120.75C993.444 117.9 1000.19 116.25 1011.59 114.6C1019.99 113.4 1021.79 113.1 1024.19 111.9C1026.29 110.7 1027.34 109.05 1027.49 107.1C1027.94 102.15 1023.14 98.25 1016.09 98.25C1007.54 98.25 1002.89 101.7 1002.29 108.6H983.694C984.144 100.65 985.794 96.15 990.444 91.5C996.294 85.65 1004.84 82.95 1017.89 82.95C1030.04 82.95 1039.64 87 1044.29 93.6C1046.09 96.45 1046.99 100.5 1046.99 105.9V144.3C1046.99 146.85 1047.44 149.55 1048.19 152.1C1048.64 153.9 1049.24 154.95 1051.49 156.6V159H1029.29L1027.94 150ZM1027.19 124.35C1020.44 126 1017.44 126.75 1014.44 127.35C1004.24 129.6 1001.24 131.85 1001.24 137.7C1001.24 143.7 1004.69 146.7 1011.74 146.7C1017.29 146.7 1022.99 143.7 1025.24 139.65C1026.59 137.4 1027.19 133.95 1027.19 129.75V124.35ZM1052.92 84.75H1062.97V63.9H1082.77V84.75H1095.22V98.7H1083.07V136.5C1083.07 141.45 1083.52 143.4 1085.17 144.15C1086.82 144.9 1089.07 145.2 1092.07 145.2L1095.22 145.05V160.05H1080.07C1069.27 160.05 1062.97 153.75 1062.97 142.95V98.7H1052.92V84.75ZM1135.6 81.9C1159.6 81.9 1174 96.9 1174 122.1C1174 146.85 1159.6 162.15 1135.6 162.15C1111.6 162.15 1097.2 146.85 1097.2 122.1C1097.2 96.9 1111.6 81.9 1135.6 81.9ZM1135.75 98.55C1124.35 98.55 1118.05 106.95 1118.05 121.5C1118.05 137.85 1123.9 145.95 1135.75 145.95C1147.15 145.95 1153.3 137.7 1153.3 122.25C1153.3 106.8 1147.15 98.55 1135.75 98.55ZM1180.02 84.6H1198.32L1198.77 96.15C1203.12 87 1209.57 82.95 1223.07 82.2V102C1212.72 102.75 1209.72 103.05 1206.57 105.45C1201.62 108.6 1199.37 113.25 1199.37 120.45V159H1180.02V84.6Z" fill="#E6E6E6"/>
<rect x="162" y="58" width="21" height="21" fill="#2B2B2C"/>
<path d="M167.951 76.0851C165.126 74.6626 163.978 72.6263 163.249 69.8782C163.089 69.274 163.425 68.6927 164.049 68.7335V68.7335M167.951 76.0851C168.607 74.3264 170.205 72.8285 171.852 71.8717M167.951 76.0851C170.316 77.2762 173.316 77.3114 175.721 76.149M171.852 71.8717C171.11 71.0164 169.704 70.5024 168.443 70.0086M171.852 71.8717C173.414 71.044 174.206 70.691 175.623 70.0681M171.852 71.8717C173.852 73.0028 174.457 74.0353 175.721 76.149M168.443 70.0086C169.15 68.9674 169.706 68.2906 170.41 67.6977M168.443 70.0086C167.076 69.4735 165.542 68.8312 164.049 68.7335M175.623 70.0681C174.778 69.115 174.152 68.3736 173.328 67.6977M175.623 70.0681L179.623 69.0133M170.41 67.6977V67.6977C171.23 67.0065 172.474 67.0058 173.308 67.6813C173.314 67.6867 173.321 67.6922 173.328 67.6977M170.41 67.6977C169.713 67.0151 169.088 66.499 168.443 66.0771M164.049 68.7335C163.828 67.3835 163.655 66.5246 163.906 65.4004C164.034 64.8317 164.677 64.4284 165.23 64.6142V64.6142M173.328 67.6977C173.843 66.9334 174.403 66.4322 175.164 65.9401M179.623 69.0133V69.0133C180.284 68.8653 180.9 69.5491 180.723 70.2028C180.015 72.8172 178.377 74.8656 175.721 76.149M179.623 69.0133C179.903 67.5152 180.058 66.6308 179.631 65.3022C179.481 64.8351 178.948 64.3705 178.475 64.5037V64.5037M168.443 66.0771C167.505 65.4644 166.527 65.0506 165.23 64.6142M168.443 66.0771C169.487 64.6115 170.148 63.7895 171.525 62.8231M175.164 65.9401C174.275 64.551 173.645 63.7876 172.197 62.8231M175.164 65.9401C176.01 65.393 176.937 64.9377 178.475 64.5037M165.23 64.6142C165.601 63.1888 165.962 62.2961 166.694 61.2966C167.14 60.6894 167.964 60.5093 168.639 60.842V60.842M171.525 62.8231V62.8231C171.722 62.6844 171.984 62.6815 172.186 62.8152C172.19 62.8179 172.193 62.8205 172.197 62.8231M171.525 62.8231C170.483 61.9025 169.717 61.3728 168.639 60.842M172.197 62.8231C173.072 61.8213 173.768 61.2659 174.713 60.842M178.475 64.5037C177.991 63.279 177.676 62.4661 177.106 61.5736C176.597 60.7766 175.575 60.4548 174.713 60.842V60.842M168.639 60.842C169.35 59.8987 169.924 59.0132 170.674 58.4812C171.369 57.9877 172.351 57.9632 173.03 58.4792C173.718 59.002 174.144 59.8732 174.713 60.842" stroke="#00F43A"/>
</svg>
