<svg width="968" height="110" viewBox="0 0 968 110" fill="none" xmlns="http://www.w3.org/2000/svg">
<path d="M41.4395 109.5C33.1395 109.5 25.4395 108.45 18.3395 106.35C11.2395 104.15 5.23945 101.2 0.339454 97.5L6.18945 82.35C11.0895 85.85 16.4395 88.55 22.2395 90.45C28.1395 92.35 34.5395 93.3 41.4395 93.3C49.3395 93.3 55.0895 92 58.6895 89.4C62.2895 86.7 64.0895 83.25 64.0895 79.05C64.0895 75.55 62.7895 72.8 60.1895 70.8C57.6895 68.8 53.3395 67.15 47.1395 65.85L30.6395 62.4C11.8395 58.4 2.43945 48.75 2.43945 33.45C2.43945 26.85 4.18945 21.1 7.68945 16.2C11.1895 11.3 16.0395 7.5 22.2395 4.8C28.4395 2.1 35.5895 0.749995 43.6895 0.749995C50.8895 0.749995 57.6395 1.85 63.9395 4.05C70.2395 6.14999 75.4895 9.14999 79.6895 13.05L73.8395 27.45C65.5395 20.45 55.4395 16.95 43.5395 16.95C36.6395 16.95 31.2395 18.4 27.3395 21.3C23.4395 24.2 21.4895 28 21.4895 32.7C21.4895 36.3 22.6895 39.2 25.0895 41.4C27.4895 43.5 31.5895 45.15 37.3895 46.35L53.7395 49.8C63.6395 51.9 70.9895 55.2 75.7895 59.7C80.6895 64.2 83.1395 70.2 83.1395 77.7C83.1395 84 81.4395 89.55 78.0395 94.35C74.6395 99.15 69.7895 102.9 63.4895 105.6C57.2895 108.2 49.9395 109.5 41.4395 109.5ZM98.5684 108V2.24999H117.318V45.3C119.818 41.3 123.168 38.3 127.368 36.3C131.568 34.2 136.218 33.15 141.318 33.15C158.618 33.15 167.268 43.2 167.268 63.3V108H148.518V64.2C148.518 58.5 147.418 54.35 145.218 51.75C143.118 49.15 139.818 47.85 135.318 47.85C129.818 47.85 125.418 49.6 122.118 53.1C118.918 56.5 117.318 61.05 117.318 66.75V108H98.5684ZM185.863 18.9V0.599997H206.863V18.9H185.863ZM187.063 108V34.65H205.813V108H187.063ZM252.895 109.5C246.695 109.5 240.895 108.75 235.495 107.25C230.095 105.75 225.595 103.6 221.995 100.8L226.795 88.5C230.495 91 234.645 92.95 239.245 94.35C243.845 95.65 248.445 96.3 253.045 96.3C257.845 96.3 261.395 95.5 263.695 93.9C266.095 92.2 267.295 90 267.295 87.3C267.295 83.1 264.195 80.4 257.995 79.2L242.995 76.35C230.295 73.95 223.945 67.35 223.945 56.55C223.945 51.75 225.245 47.6 227.845 44.1C230.545 40.6 234.245 37.9 238.945 36C243.645 34.1 249.045 33.15 255.145 33.15C260.345 33.15 265.345 33.9 270.145 35.4C274.945 36.8 279.045 38.95 282.445 41.85L277.345 54.15C274.445 51.75 270.945 49.85 266.845 48.45C262.845 47.05 258.995 46.35 255.295 46.35C250.395 46.35 246.745 47.2 244.345 48.9C242.045 50.6 240.895 52.85 240.895 55.65C240.895 60.05 243.745 62.75 249.445 63.75L264.445 66.6C270.945 67.8 275.845 70 279.145 73.2C282.545 76.4 284.245 80.7 284.245 86.1C284.245 93.4 281.395 99.15 275.695 103.35C269.995 107.45 262.395 109.5 252.895 109.5ZM300.037 108V2.24999H318.787V45.3C321.287 41.3 324.637 38.3 328.837 36.3C333.037 34.2 337.687 33.15 342.787 33.15C360.087 33.15 368.737 43.2 368.737 63.3V108H349.987V64.2C349.987 58.5 348.887 54.35 346.687 51.75C344.587 49.15 341.287 47.85 336.787 47.85C331.287 47.85 326.887 49.6 323.587 53.1C320.387 56.5 318.787 61.05 318.787 66.75V108H300.037ZM388.531 108V2.24999H407.281V65.85H407.581L437.131 34.65H459.781L426.481 69.75L461.881 108H438.931L407.581 75.3H407.281V108H388.531ZM493.119 109.5C487.819 109.5 483.069 108.5 478.869 106.5C474.769 104.4 471.519 101.6 469.119 98.1C466.819 94.6 465.669 90.65 465.669 86.25C465.669 80.85 467.069 76.6 469.869 73.5C472.669 70.3 477.219 68 483.519 66.6C489.819 65.2 498.269 64.5 508.869 64.5H514.119V61.35C514.119 56.35 513.019 52.75 510.819 50.55C508.619 48.35 504.919 47.25 499.719 47.25C495.619 47.25 491.419 47.9 487.119 49.2C482.819 50.4 478.469 52.3 474.069 54.9L468.669 42.15C471.269 40.35 474.319 38.8 477.819 37.5C481.419 36.1 485.169 35.05 489.069 34.35C493.069 33.55 496.819 33.15 500.319 33.15C511.019 33.15 518.969 35.65 524.169 40.65C529.369 45.55 531.969 53.2 531.969 63.6V108H514.419V96.3C512.719 100.4 510.019 103.65 506.319 106.05C502.619 108.35 498.219 109.5 493.119 109.5ZM497.019 96.6C501.919 96.6 505.969 94.9 509.169 91.5C512.469 88.1 514.119 83.8 514.119 78.6V75.3H509.019C499.619 75.3 493.069 76.05 489.369 77.55C485.769 78.95 483.969 81.55 483.969 85.35C483.969 88.65 485.119 91.35 487.419 93.45C489.719 95.55 492.919 96.6 497.019 96.6Z" fill="#00F43A"/>
<path d="M587.45 108L540.35 2.24999H560.9L595.85 83.4L630.8 2.24999H650.6L603.5 108H587.45ZM658.234 18.9V0.599997H679.234V18.9H658.234ZM659.434 108V34.65H678.184V108H659.434ZM725.266 109.5C719.066 109.5 713.266 108.75 707.866 107.25C702.466 105.75 697.966 103.6 694.366 100.8L699.166 88.5C702.866 91 707.016 92.95 711.616 94.35C716.216 95.65 720.816 96.3 725.416 96.3C730.216 96.3 733.766 95.5 736.066 93.9C738.466 92.2 739.666 90 739.666 87.3C739.666 83.1 736.566 80.4 730.366 79.2L715.366 76.35C702.666 73.95 696.316 67.35 696.316 56.55C696.316 51.75 697.616 47.6 700.216 44.1C702.916 40.6 706.616 37.9 711.316 36C716.016 34.1 721.416 33.15 727.516 33.15C732.716 33.15 737.716 33.9 742.516 35.4C747.316 36.8 751.416 38.95 754.816 41.85L749.716 54.15C746.816 51.75 743.316 49.85 739.216 48.45C735.216 47.05 731.366 46.35 727.666 46.35C722.766 46.35 719.116 47.2 716.716 48.9C714.416 50.6 713.266 52.85 713.266 55.65C713.266 60.05 716.116 62.75 721.816 63.75L736.816 66.6C743.316 67.8 748.216 70 751.516 73.2C754.916 76.4 756.616 80.7 756.616 86.1C756.616 93.4 753.766 99.15 748.066 103.35C742.366 107.45 734.766 109.5 725.266 109.5ZM771.208 18.9V0.599997H792.208V18.9H771.208ZM772.408 108V34.65H791.158V108H772.408ZM844.841 109.5C837.241 109.5 830.641 107.95 825.041 104.85C819.441 101.75 815.091 97.35 811.991 91.65C808.891 85.85 807.341 79.05 807.341 71.25C807.341 63.45 808.891 56.7 811.991 51C815.091 45.3 819.441 40.9 825.041 37.8C830.641 34.7 837.241 33.15 844.841 33.15C852.441 33.15 859.041 34.7 864.641 37.8C870.241 40.9 874.591 45.3 877.691 51C880.791 56.7 882.341 63.45 882.341 71.25C882.341 79.05 880.791 85.85 877.691 91.65C874.591 97.35 870.241 101.75 864.641 104.85C859.041 107.95 852.441 109.5 844.841 109.5ZM844.841 95.25C850.441 95.25 854.941 93.25 858.341 89.25C861.741 85.15 863.441 79.15 863.441 71.25C863.441 63.25 861.741 57.3 858.341 53.4C854.941 49.4 850.441 47.4 844.841 47.4C839.241 47.4 834.741 49.4 831.341 53.4C827.941 57.3 826.241 63.25 826.241 71.25C826.241 79.15 827.941 85.15 831.341 89.25C834.741 93.25 839.241 95.25 844.841 95.25ZM898.566 108V34.65H916.866V46.05C919.366 41.85 922.716 38.65 926.916 36.45C931.216 34.25 936.016 33.15 941.316 33.15C958.616 33.15 967.266 43.2 967.266 63.3V108H948.516V64.2C948.516 58.5 947.416 54.35 945.216 51.75C943.116 49.15 939.816 47.85 935.316 47.85C929.816 47.85 925.416 49.6 922.116 53.1C918.916 56.5 917.316 61.05 917.316 66.75V108H898.566Z" fill="#E6E6E6"/>
</svg>
