<svg width="1920" height="1338" viewBox="0 0 1920 1338" fill="none" xmlns="http://www.w3.org/2000/svg">
<g clip-path="url(#clip0_18_119)">
<rect width="1920" height="1338" fill="#2A2A2C"/>
<path d="M1922.99 1177.01C1731.21 1165.89 1621.86 1068.24 1507.88 916.139C1505.48 912.939 1505.47 908.486 1508.41 905.775C1516.04 898.735 1530.28 889.53 1552.49 881.009M1922.99 1177.01C1912.16 1069.92 1953.76 955.007 2011.03 867.293M1922.99 1177.01C2067.85 1185.4 2215.51 1118.8 2304.84 1003.02M2011.03 867.293C1953.8 839.442 1872.45 844.601 1798.65 847.53M2011.03 867.293C2067.26 788.294 2097.37 751.747 2151.51 686.781M2011.03 867.293C2136.51 880.905 2191.36 921.16 2304.84 1003.02M1798.65 847.53C1807.82 776.859 1818.52 728.718 1838.49 681.599M1798.65 847.53C1718.68 850.703 1627.93 852.06 1552.49 881.009M2151.51 686.781C2086.87 656.15 2038.15 631.591 1981.3 615.006M2151.51 686.781L2321.51 540.25M1838.49 681.599C1849.48 655.661 1863.28 630.032 1881.17 601.126C1883.14 597.947 1886.89 596.344 1890.56 597.051C1925.66 603.811 1953.82 606.989 1981.3 615.006M1838.49 681.599C1787.73 661.739 1744.51 648.985 1702.63 641.617M1552.49 881.009C1498.38 799.943 1466.2 756.397 1455.8 659.636C1455.27 654.755 1458.83 650.358 1463.63 649.311C1478.46 646.073 1498.85 639.306 1509.65 638.323M1981.3 615.006C1987.85 563.217 2003 524.193 2028.23 481.05M2321.51 540.25C2331.88 532.012 2358.29 516.674 2374.06 506.918C2379.36 503.641 2386.73 506.205 2388.49 512.181C2440.77 689.355 2417.38 857.165 2304.84 1003.02M2321.51 540.25C2295 441.988 2280.44 390.631 2202.86 316.387C2199.52 313.199 2194.09 312.861 2189.9 314.79C2178.79 319.911 2159.75 326.191 2155.21 330.245M1702.63 641.617C1641.8 630.915 1583.79 631.576 1509.65 638.323M1702.63 641.617C1717.94 541.023 1730.21 482.887 1773.99 400.852M2028.23 481.05C1950.78 428.592 1901.32 402.977 1806.92 385.498M2028.23 481.05C2056.29 433.082 2090.51 388.094 2155.21 330.245M1509.65 638.323C1488.34 531.783 1487.54 471.462 1513.76 368.502C1514.77 364.558 1518.32 361.768 1522.39 361.753C1544.97 361.669 1565.33 362.005 1584.4 362.935M1773.99 400.852C1776.4 396.342 1778.9 391.76 1781.5 387.094C1783.34 383.811 1787.03 382.035 1790.74 382.655C1796.28 383.579 1801.67 384.526 1806.92 385.498M1773.99 400.852C1700.55 376.4 1650.12 366.139 1584.4 362.935M1806.92 385.498C1825.26 313.068 1845.76 268.098 1881.64 224.331M2155.21 330.245C2079.71 255.476 2040.54 215.847 1946.32 166.425C1942.98 164.672 1938.86 165.198 1936.1 167.762C1914.56 187.709 1896.74 205.914 1881.64 224.331M1584.4 362.935C1601.42 267.644 1607.41 185.256 1671.1 141.539C1671.85 141.023 1672.71 140.621 1673.58 140.369C1751.27 118.105 1806.54 169.225 1881.64 224.331" stroke="#E6E6E6" stroke-opacity="0.55" stroke-width="15"/>
<path d="M-379.625 998.725C-493.336 843.707 -487.731 697.183 -443.076 512.434C-442.136 508.544 -438.71 505.697 -434.745 506.239C-424.447 507.646 -408.265 512.771 -387.531 524.477M-379.625 998.725C-303.921 922.196 -188.745 881.138 -84.5628 869.477M-379.625 998.725C-293.729 1115.82 -148.197 1187.33 -1.92145 1182.53M-84.5628 869.477C-99.5712 807.597 -155.422 748.128 -204.741 693.058M-84.5628 869.477C12.2345 862.564 59.6209 862.518 144.265 862.931M-84.5628 869.477C-15.0565 974.936 -11.13 1042.88 -1.92145 1182.53M-204.741 693.058C-144.378 655.142 -100.417 632.75 -51.338 618.156M-204.741 693.058C-258.185 633.384 -317.096 564.243 -387.531 524.477M144.265 862.931C126.674 793.564 114.553 740.344 91.0959 685.929M144.265 862.931L365.702 900.79M-51.338 618.156C-24.3178 610.12 4.25394 604.449 37.9683 599.851C41.67 599.346 45.2889 601.212 47.0818 604.49C64.2505 635.876 79.756 659.623 91.0959 685.929M-51.338 618.156C-68.3799 566.359 -86.102 524.898 -107.123 487.9M-387.531 524.477C-359.496 431.126 -346.426 378.577 -278.413 308.95C-274.984 305.439 -269.331 305.384 -265.471 308.414C-253.512 317.799 -235.283 329.222 -227.635 336.932M91.0959 685.929C135.224 658.012 174.986 644.854 224.358 636.856M365.702 900.79C378.668 903.542 407.352 914.156 424.935 920.113C430.836 922.112 433.547 929.423 430.062 934.588C326.723 1087.71 182.354 1176.49 -1.92145 1182.53M365.702 900.79C424.598 817.781 454.93 773.851 462.732 666.732C463.067 662.136 459.868 657.734 455.715 655.735C444.678 650.423 427.683 639.727 421.663 638.809M-107.123 487.9C-137.658 434.156 -175.153 389.832 -227.635 336.932M-107.123 487.9C-19.7611 435.67 32.9113 408.125 124.111 389.674M224.358 636.856C215.441 543.714 203.66 489.249 156.951 405.3M224.358 636.856C279.253 627.963 335.776 625.718 421.663 638.809M-227.635 336.932C-159.037 252.663 -113.013 213.645 -16.8598 168.328C-13.1808 166.594 -8.76868 167.559 -6.16587 170.684C8.30056 188.054 21.0247 203.974 32.4691 219.28M124.111 389.674C129.128 388.659 134.262 387.672 139.524 386.709C143.22 386.033 146.939 387.751 148.824 391.001C151.645 395.867 154.352 400.629 156.951 405.3M124.111 389.674C96.1427 317.451 71.903 272.018 32.4691 219.28M156.951 405.3C224.52 373.339 272.28 360.521 328.923 360.339M421.663 638.809C431.194 532.958 436.788 477.513 414.835 373.365C414.058 369.676 411.033 366.84 407.297 366.338C378.173 362.424 352.762 360.263 328.923 360.339M32.4691 219.28C116.833 171.746 184.208 123.916 258.542 145.216C259.417 145.467 260.273 145.871 261.024 146.386C327.737 192.14 323.544 267.322 328.923 360.339" stroke="#E6E6E6" stroke-opacity="0.55" stroke-width="15"/>
</g>
<defs>
<clipPath id="clip0_18_119">
<rect width="1920" height="1338" fill="white"/>
</clipPath>
</defs>
</svg>
