<svg width="20" height="21" viewBox="0 0 20 21" fill="none" xmlns="http://www.w3.org/2000/svg">
<path d="M5.95082 19.0851C3.1257 17.6626 1.97755 15.6263 1.24939 12.8782C1.08931 12.274 1.4255 11.6927 2.04918 11.7335V11.7335M5.95082 19.0851C6.60715 17.3264 8.2048 15.8285 9.85246 14.8717M5.95082 19.0851C8.31645 20.2762 11.3159 20.3114 13.7213 19.149M9.85246 14.8717C9.10989 14.0164 7.70422 13.5024 6.44262 13.0086M9.85246 14.8717C11.4145 14.044 12.2057 13.691 13.6229 13.0681M9.85246 14.8717C11.8518 16.0028 12.4574 17.0353 13.7213 19.149M6.44262 13.0086C7.14961 11.9674 7.70598 11.2906 8.40984 10.6977M6.44262 13.0086C5.07553 12.4735 3.54186 11.8312 2.04918 11.7335M13.6229 13.0681C12.7777 12.115 12.1522 11.3736 11.3279 10.6977M13.6229 13.0681L17.6229 12.0133M8.40984 10.6977V10.6977C9.2303 10.0065 10.4744 10.0058 11.3078 10.6813C11.3145 10.6867 11.3212 10.6922 11.3279 10.6977M8.40984 10.6977C7.71345 10.0151 7.08785 9.49896 6.44262 9.07714M2.04918 11.7335C1.82755 10.3835 1.65467 9.52459 1.90633 8.40045C2.03365 7.83174 2.67714 7.42837 3.22951 7.61419V7.61419M11.3279 10.6977C11.8431 9.93339 12.4028 9.43216 13.1639 8.9401M17.6229 12.0133V12.0133C18.2837 11.8653 18.8995 12.5491 18.7227 13.2028C18.0154 15.8172 16.3769 17.8656 13.7213 19.149M17.6229 12.0133C17.9028 10.5152 18.0584 9.63076 17.6314 8.30224C17.4813 7.83507 16.9477 7.37046 16.4754 7.50367V7.50367M6.44262 9.07714C5.50535 8.46439 4.52668 8.05058 3.22951 7.61419M6.44262 9.07714C7.48683 7.61148 8.14777 6.78947 9.52459 5.8231M13.1639 8.9401C12.2746 7.55102 11.6449 6.78757 10.1974 5.8231M13.1639 8.9401C14.0103 8.39301 14.9366 7.93769 16.4754 7.50367M3.22951 7.61419C3.601 6.18882 3.96188 5.29611 4.69445 4.29664C5.13952 3.68941 5.96394 3.50932 6.63934 3.84196V3.84196M9.52459 5.8231V5.8231C9.72223 5.68438 9.9845 5.68153 10.1856 5.81524C10.1895 5.81786 10.1934 5.82048 10.1974 5.8231M9.52459 5.8231C8.48331 4.90251 7.71727 4.37283 6.63934 3.84196M10.1974 5.8231C11.0721 4.82131 11.768 4.26594 12.7128 3.84196M16.4754 7.50367C15.9911 6.27898 15.6755 5.46612 15.1057 4.57358C14.5969 3.77662 13.5754 3.45482 12.7128 3.84196V3.84196M6.63934 3.84196C7.34951 2.89872 7.92403 2.01317 8.67357 1.48124C9.36898 0.987724 10.3509 0.963246 11.0299 1.47918C11.7179 2.00201 12.1445 2.87324 12.7128 3.84196" stroke="#00F43A"/>
</svg>
